<svg width="121" height="121" viewBox="0 0 121 121" fill="none" xmlns="http://www.w3.org/2000/svg">
<path d="M79.388 35.6284V31.5688C79.3876 31.2989 79.3269 31.0325 79.2105 30.789C79.094 30.5455 78.9247 30.331 78.7149 30.1612C78.5051 29.9914 78.2601 29.8705 77.9977 29.8073C77.7352 29.7442 77.462 29.7404 77.1979 29.7962C72.4487 30.8005 60.996 32.0649 53.2399 23.3771C53.0667 23.1886 52.8556 23.0389 52.6204 22.9378C52.3852 22.8367 52.1312 22.7865 51.8752 22.7905C51.6193 22.7945 51.367 22.8526 51.1351 22.961C50.9032 23.0694 50.6968 23.2256 50.5295 23.4195C47.7949 26.5715 40.5349 32.561 26.4445 29.7296C26.1799 29.6737 25.9062 29.6777 25.6433 29.7411C25.3804 29.8046 25.1351 29.9261 24.9252 30.0965C24.7152 30.267 24.5461 30.4823 24.43 30.7265C24.314 30.9708 24.254 31.2379 24.2544 31.5083V81.9774C24.255 82.299 24.341 82.6147 24.5036 82.8922C24.6662 83.1696 24.8997 83.3989 25.18 83.5565L50.9349 98.0099C51.2057 98.1615 51.5109 98.241 51.8212 98.241C52.1316 98.241 52.4367 98.1615 52.7075 98.0099L78.4805 83.5686C78.7567 83.4148 78.988 83.1916 79.1514 82.921C79.3148 82.6504 79.4047 82.3418 79.4122 82.0258L79.4788 78.0025" stroke="#232F3E" stroke-width="2" stroke-linejoin="round"/>
<path d="M24.811 61.1958L59.4594 72.4065" stroke="#232F3E" stroke-width="2" stroke-linejoin="round"/>
<path d="M24.6597 40.6924L57.856 51.0258" stroke="#232F3E" stroke-width="2" stroke-linejoin="round"/>
<path d="M79.4786 73.4106C89.0147 73.4106 96.7453 65.68 96.7453 56.1439C96.7453 46.6078 89.0147 38.8772 79.4786 38.8772C69.9425 38.8772 62.2119 46.6078 62.2119 56.1439C62.2119 65.68 69.9425 73.4106 79.4786 73.4106Z" fill="#B5D6F4" stroke="#232F3E" stroke-width="2" stroke-linejoin="round"/>
<path d="M70.313 57.7109L75.5099 62.9079L88.2996 50.1182" stroke="#232F3E" stroke-width="2" stroke-linejoin="round"/>
</svg>
