<svg width="147" height="147" viewBox="0 0 147 147" fill="none" xmlns="http://www.w3.org/2000/svg">
<path d="M40.197 51.6411C42.3078 51.6411 44.019 49.9299 44.019 47.8191C44.019 45.7082 42.3078 43.9971 40.197 43.9971C38.0862 43.9971 36.375 45.7082 36.375 47.8191C36.375 49.9299 38.0862 51.6411 40.197 51.6411Z" stroke="#232F3E" stroke-width="2" stroke-linejoin="round"/>
<path d="M52.8904 32.1123C55.0012 32.1123 56.7124 30.4011 56.7124 28.2903C56.7124 26.1794 55.0012 24.4683 52.8904 24.4683C50.7795 24.4683 49.0684 26.1794 49.0684 28.2903C49.0684 30.4011 50.7795 32.1123 52.8904 32.1123Z" stroke="#232F3E" stroke-width="2" stroke-linejoin="round"/>
<path d="M24.5198 36.478C26.6306 36.478 28.3418 34.7668 28.3418 32.656C28.3418 30.5452 26.6306 28.834 24.5198 28.834C22.4089 28.834 20.6978 30.5452 20.6978 32.656C20.6978 34.7668 22.4089 36.478 24.5198 36.478Z" stroke="#232F3E" stroke-width="2" stroke-linejoin="round"/>
<path d="M68.5095 47.7382C70.6203 47.7382 72.3315 46.0271 72.3315 43.9162C72.3315 41.8054 70.6203 40.0942 68.5095 40.0942C66.3987 40.0942 64.6875 41.8054 64.6875 43.9162C64.6875 46.0271 66.3987 47.7382 68.5095 47.7382Z" stroke="#232F3E" stroke-width="2" stroke-linejoin="round"/>
<path d="M26.9966 35.1404L37.1763 44.8056" stroke="#232F3E" stroke-width="2" stroke-linejoin="round"/>
<path d="M42.6816 43.9971L50.6417 31.752" stroke="#232F3E" stroke-width="2" stroke-linejoin="round"/>
<path d="M55.5879 30.9949L65.8044 41.2114" stroke="#232F3E" stroke-width="2" stroke-linejoin="round"/>
<path d="M80.1738 116.24C80.3439 113.473 79.4241 110.748 77.6113 108.65C75.7985 106.552 73.2366 105.247 70.4736 105.014C67.7107 104.78 64.9661 105.637 62.8271 107.402C60.688 109.166 59.3244 111.697 59.0278 114.454" stroke="#232F3E" stroke-width="2" stroke-linejoin="round"/>
<path d="M126.42 114.756C126.185 109.045 120.65 104.51 114.895 104.576C113.56 104.547 112.233 104.783 110.991 105.271C109.748 105.76 108.615 106.49 107.658 107.42C106.7 108.351 105.937 109.462 105.413 110.69C104.889 111.917 104.614 113.237 104.605 114.572" stroke="#232F3E" stroke-width="2" stroke-linejoin="round"/>
<path d="M78.1964 97.7917H69.5308C68.5197 97.7784 67.5417 97.4299 66.7501 96.8006C65.9586 96.1714 65.3984 95.2971 65.1575 94.3151L63.6875 89.9051C63.6749 89.3152 63.8901 88.743 64.2884 88.3077C64.6868 87.8724 65.2376 87.6074 65.8264 87.5678L77.0131 87.0312L78.1964 97.7917Z" fill="#B5D6F4" stroke="#232F3E" stroke-width="2" stroke-linejoin="round"/>
<path d="M123.987 96.9171C118.754 93.2421 111.713 90.1478 103.444 87.8987L123.987 96.9171Z" fill="#B5D6F4"/>
<path d="M123.987 96.9171C118.754 93.2421 111.713 90.1478 103.444 87.8987" stroke="#232F3E" stroke-width="2" stroke-linejoin="round"/>
<path d="M123.987 96.9172C123.252 98.6371 119.915 97.9609 119.085 97.5714L107.325 91.7869C106.771 91.4936 106.301 91.0634 105.96 90.5372C105.619 90.011 105.418 89.4064 105.377 88.7808" fill="#B5D6F4"/>
<path d="M123.987 96.9172C123.252 98.6371 119.915 97.9609 119.085 97.5714L107.325 91.7869C106.771 91.4936 106.301 91.0634 105.96 90.5372C105.619 90.011 105.418 89.4064 105.377 88.7808" stroke="#232F3E" stroke-width="2" stroke-linejoin="round"/>
<path d="M62.4027 102.152C63.2569 101.279 63.2413 99.8782 62.3677 99.0239C61.4942 98.1697 60.0935 98.1853 59.2392 99.0589C58.3849 99.9325 58.4006 101.333 59.2741 102.187C60.1477 103.042 61.5484 103.026 62.4027 102.152Z" stroke="#232F3E" stroke-width="2" stroke-linejoin="round"/>
<path d="M114.873 122.532C118.648 122.532 121.709 119.471 121.709 115.696C121.709 111.921 118.648 108.861 114.873 108.861C111.098 108.861 108.038 111.921 108.038 115.696C108.038 119.471 111.098 122.532 114.873 122.532Z" stroke="#232F3E" stroke-width="2" stroke-linejoin="round"/>
<path d="M114.983 119.261C116.891 119.261 118.438 117.714 118.438 115.807C118.438 113.899 116.891 112.352 114.983 112.352C113.075 112.352 111.529 113.899 111.529 115.807C111.529 117.714 113.075 119.261 114.983 119.261Z" fill="#B5D6F4" stroke="#232F3E" stroke-width="2" stroke-linejoin="round"/>
<path d="M69.3033 122.532C73.0784 122.532 76.1388 119.471 76.1388 115.696C76.1388 111.921 73.0784 108.861 69.3033 108.861C65.5281 108.861 62.4678 111.921 62.4678 115.696C62.4678 119.471 65.5281 122.532 69.3033 122.532Z" stroke="#232F3E" stroke-width="2" stroke-linejoin="round"/>
<path d="M81.3794 97.7917L82.5407 111.845C82.5688 112.323 82.7783 112.773 83.1266 113.102C83.4749 113.431 83.9357 113.615 84.4149 113.616L104.605 113.763" stroke="#232F3E" stroke-width="2" stroke-linejoin="round"/>
<path d="M107.957 97.7917V107.354" stroke="#232F3E" stroke-width="2" stroke-linejoin="round"/>
<path d="M83.9077 100.96H89.604" stroke="#232F3E" stroke-width="2" stroke-linejoin="round"/>
<path d="M54.0962 109.324L60.4245 110.279" stroke="#232F3E" stroke-width="2" stroke-linejoin="round"/>
<path d="M133.623 109.706H124.759" stroke="#232F3E" stroke-width="2" stroke-linejoin="round"/>
<path d="M79.0273 110.86H82.5186" stroke="#232F3E" stroke-width="2" stroke-linejoin="round"/>
<path d="M130.47 104.069C129.281 102.061 127.813 100.233 126.111 98.637" stroke="#232F3E" stroke-width="2" stroke-linejoin="round"/>
<path d="M123.987 96.917C124.734 97.441 125.444 98.0156 126.111 98.6369" stroke="#232F3E" stroke-width="2" stroke-linejoin="round"/>
<path d="M121.863 114.88H131.418C131.749 114.887 132.078 114.82 132.38 114.682C132.681 114.544 132.948 114.34 133.16 114.085C133.372 113.83 133.523 113.531 133.604 113.209C133.684 112.887 133.69 112.552 133.623 112.227C133.052 109.342 131.977 106.58 130.448 104.069" stroke="#232F3E" stroke-width="2" stroke-linejoin="round"/>
<path d="M76.4253 116.777H108.192" stroke="#232F3E" stroke-width="2" stroke-linejoin="round"/>
<path d="M103.444 87.8987C101.43 87.3475 99.3499 86.8403 97.1963 86.4287C75.6829 82.0187 62.2838 85.7966 62.2838 85.7966C61.6405 85.7966 61.0236 86.0522 60.5687 86.5071C60.1139 86.9619 59.8583 87.5789 59.8583 88.2221L53.0816 95.0944C52.8261 95.3538 52.6331 95.668 52.5172 96.0131C52.4013 96.3582 52.3656 96.7252 52.4128 97.0862L54.1621 110.25C54.1621 111.312 54.5841 112.331 55.3353 113.083C56.0866 113.834 57.1054 114.256 58.1678 114.256L62.4014 115.307" stroke="#232F3E" stroke-width="2" stroke-linejoin="round"/>
<path d="M130.47 103.826C130.19 103.863 129.904 104.627 129.617 104.693C128.698 104.94 127.72 104.834 126.875 104.398C126.029 103.962 125.377 103.226 125.045 102.334C124.31 100.518 125.347 98.6589 126.111 98.6589" stroke="#232F3E" stroke-width="2" stroke-linejoin="round"/>
<path d="M81.3794 97.7918L80.1152 87.8987C80.1152 87.8987 88.9793 87.8987 95.3077 89.06C101.636 90.2213 107.964 93.7199 107.964 97.7918H81.3794Z" fill="#B5D6F4" stroke="#232F3E" stroke-width="2" stroke-linejoin="round"/>
<path d="M69.3031 119.261C71.211 119.261 72.7576 117.714 72.7576 115.807C72.7576 113.899 71.211 112.352 69.3031 112.352C67.3953 112.352 65.8486 113.899 65.8486 115.807C65.8486 117.714 67.3953 119.261 69.3031 119.261Z" fill="#B5D6F4" stroke="#232F3E" stroke-width="2" stroke-linejoin="round"/>
<path d="M35.9564 96.1234H26.0192C21.3225 96.1234 13.3184 90.9784 13.3184 83.8415V82.4671C13.3184 75.2935 20.6169 70.1411 25.3136 70.1411H84.4517" stroke="#232F3E" stroke-width="2" stroke-linejoin="round" stroke-dasharray="4 6"/>
<path d="M39.7416 100.041C41.8809 100.041 43.6151 98.3066 43.6151 96.1674C43.6151 94.0281 41.8809 92.2939 39.7416 92.2939C37.6024 92.2939 35.8682 94.0281 35.8682 96.1674C35.8682 98.3066 37.6024 100.041 39.7416 100.041Z" stroke="#232F3E" stroke-width="2" stroke-linejoin="round"/>
<path d="M72.5664 44.2175H82.5036C87.2003 44.2175 95.2044 49.3625 95.2044 56.4994V57.8738C95.2044 65.0548 87.9059 70.2071 83.2092 70.2071" stroke="#232F3E" stroke-width="2" stroke-linejoin="round" stroke-dasharray="4 6"/>
</svg>
