<svg width="128" height="128" viewBox="0 0 128 128" fill="none" xmlns="http://www.w3.org/2000/svg">
<path d="M42.6304 14.24H22.624C22.3348 14.24 22.0486 14.2969 21.7814 14.4076C21.5143 14.5182 21.2716 14.6804 21.0672 14.8848C20.8628 15.0893 20.7006 15.332 20.59 15.5991C20.4793 15.8662 20.4224 16.1525 20.4224 16.4416V59.904C20.4291 60.4834 20.664 61.0369 21.0762 61.4442C21.4883 61.8516 22.0445 62.08 22.624 62.08H36.384" stroke="#232F3E" stroke-width="2" stroke-linejoin="round"/>
<path d="M42.6304 25.376H53.76L42.6304 14.24V25.376Z" stroke="#232F3E" stroke-width="2" stroke-linejoin="round"/>
<path d="M53.7598 46.2271V25.7983" stroke="#232F3E" stroke-width="2" stroke-linejoin="round"/>
<path d="M90.272 13.696H70.2656C69.9764 13.696 69.6902 13.753 69.4231 13.8636C69.1559 13.9743 68.9132 14.1364 68.7088 14.3409C68.5044 14.5453 68.3422 14.788 68.2316 15.0551C68.1209 15.3222 68.064 15.6085 68.064 15.8976V46.2144" stroke="#232F3E" stroke-width="2" stroke-linejoin="round"/>
<path d="M90.272 24.8256H101.408L90.272 13.696V24.8256Z" fill="#B5D6F4" stroke="#232F3E" stroke-width="2" stroke-linejoin="round"/>
<path d="M72.9282 33.1711H96.4738" stroke="#232F3E" stroke-width="2" stroke-linejoin="round"/>
<path d="M72.9282 39.6929H96.4738" stroke="#232F3E" stroke-width="2" stroke-linejoin="round"/>
<path d="M72.9282 46.2144H96.4738" stroke="#232F3E" stroke-width="2" stroke-linejoin="round"/>
<path d="M77.3311 52.7424H96.6271" stroke="#232F3E" stroke-width="2" stroke-linejoin="round"/>
<path d="M72.9282 26.6433H86.253" stroke="#232F3E" stroke-width="2" stroke-linejoin="round"/>
<path d="M101.53 24.6975V59.8975C101.523 60.4787 101.287 61.0337 100.874 61.4423C100.461 61.8508 99.9029 62.0799 99.3217 62.0799L86.2529 62.0223" stroke="#232F3E" stroke-width="2" stroke-linejoin="round"/>
<path d="M70.0226 72.0769H51.8274C51.1204 72.0769 50.5474 72.65 50.5474 73.3569V91.5521C50.5474 92.259 51.1204 92.8321 51.8274 92.8321H70.0226C70.7295 92.8321 71.3026 92.259 71.3026 91.5521V73.3569C71.3026 72.65 70.7295 72.0769 70.0226 72.0769Z" fill="#B5D6F4" stroke="#232F3E" stroke-width="2" stroke-linejoin="round"/>
<path d="M50.5601 91.7952L59.4433 81.6768C59.4985 81.6109 59.5676 81.5578 59.6455 81.5215C59.7235 81.4851 59.8084 81.4663 59.8945 81.4663C59.9805 81.4663 60.0655 81.4851 60.1434 81.5215C60.2214 81.5578 60.2904 81.6109 60.3457 81.6768L64.6401 86.7968C64.6959 86.8628 64.7655 86.9159 64.844 86.9523C64.9225 86.9887 65.0079 87.0075 65.0945 87.0075C65.181 87.0075 65.2664 86.9887 65.3449 86.9523C65.4234 86.9159 65.493 86.8628 65.5489 86.7968L71.3089 80.064" stroke="#232F3E" stroke-width="2" stroke-linejoin="round"/>
<path d="M65.0881 80.7297C66.5196 80.7297 67.6801 79.5692 67.6801 78.1377C67.6801 76.7061 66.5196 75.5457 65.0881 75.5457C63.6566 75.5457 62.4961 76.7061 62.4961 78.1377C62.4961 79.5692 63.6566 80.7297 65.0881 80.7297Z" fill="white" stroke="#232F3E" stroke-width="2" stroke-linejoin="round"/>
<path d="M36.8385 50.0287C41.4936 50.0287 45.2673 46.255 45.2673 41.5999C45.2673 36.9448 41.4936 33.1711 36.8385 33.1711C32.1834 33.1711 28.4097 36.9448 28.4097 41.5999C28.4097 46.255 32.1834 50.0287 36.8385 50.0287Z" fill="#B5D6F4" stroke="#232F3E" stroke-width="2" stroke-linejoin="round"/>
<path d="M34.3169 37.4656L40.4417 41.6L34.3169 45.7344V37.4656Z" fill="white" stroke="#232F3E" stroke-width="2" stroke-linejoin="round"/>
<path d="M91.2192 114.304C100.254 114.304 107.578 106.98 107.578 97.9455C107.578 88.9111 100.254 81.5872 91.2192 81.5872C82.1847 81.5872 74.8608 88.9111 74.8608 97.9455C74.8608 106.98 82.1847 114.304 91.2192 114.304Z" fill="#B5D6F4" stroke="#232F3E" stroke-width="2" stroke-linejoin="round"/>
<path d="M66.7583 54.4512H46.7519C46.4631 54.4503 46.1769 54.5065 45.9099 54.6164C45.6428 54.7264 45.4 54.8879 45.1955 55.0919C44.991 55.2958 44.8287 55.5381 44.718 55.8048C44.6073 56.0716 44.5503 56.3576 44.5503 56.6464V100.115C44.552 100.698 44.7847 101.256 45.1974 101.668C45.6101 102.079 46.1691 102.31 46.7519 102.31H70.8031" stroke="#232F3E" stroke-width="2" stroke-linejoin="round"/>
<path d="M66.7583 65.5808H77.8879L66.7583 54.4512V65.5808Z" stroke="#232F3E" stroke-width="2" stroke-linejoin="round"/>
<path d="M77.8882 81.7599V66.0095" stroke="#232F3E" stroke-width="2" stroke-linejoin="round"/>
<path d="M92.7297 97.2046L98.1704 103.009L83.8369 103.009" stroke="#232F3E" stroke-width="2" stroke-linejoin="round"/>
<path d="M92.7297 108.267L98.1704 103.008" stroke="#232F3E" stroke-width="2" stroke-linejoin="round"/>
<path d="M88.4408 99.063L83 93.2589H97.3336" stroke="#232F3E" stroke-width="2" stroke-linejoin="round"/>
<path d="M88.4408 88.0002L83 93.2593" stroke="#232F3E" stroke-width="2" stroke-linejoin="round"/>
</svg>
