<svg width="126" height="126" viewBox="0 0 126 126" fill="none" xmlns="http://www.w3.org/2000/svg">
<path d="M58.7414 81.6479C59.7226 81.6479 60.518 80.8525 60.518 79.8713C60.518 78.8901 59.7226 78.0947 58.7414 78.0947C57.7603 78.0947 56.9648 78.8901 56.9648 79.8713C56.9648 80.8525 57.7603 81.6479 58.7414 81.6479Z" fill="#232F3E"/>
<path d="M100.447 63.315V82.6875C100.447 82.953 100.395 83.216 100.293 83.4614C100.191 83.7067 100.043 83.9297 99.8547 84.1174C99.667 84.3052 99.444 84.4542 99.1987 84.5558C98.9533 84.6575 98.6903 84.7098 98.4248 84.7098H19.5614C19.025 84.7098 18.5106 84.4967 18.1314 84.1174C17.7521 83.7382 17.5391 83.2238 17.5391 82.6875V26.0631C17.5391 25.5267 17.7521 25.0123 18.1314 24.6331C18.5106 24.2538 19.025 24.0408 19.5614 24.0408H98.4248C98.6903 24.0408 98.9533 24.0931 99.1987 24.1947C99.444 24.2963 99.667 24.4453 99.8547 24.6331C100.043 24.8209 100.191 25.0438 100.293 25.2892C100.395 25.5345 100.447 25.7975 100.447 26.0631V39.9231" stroke="#232F3E" stroke-width="2" stroke-linejoin="round"/>
<path d="M17.5391 75.3542H100.176" stroke="#232F3E" stroke-width="2" stroke-linejoin="round"/>
<path d="M62.7858 84.7097H54.1611V97.0262H62.7858V84.7097Z" stroke="#232F3E" stroke-width="2" stroke-linejoin="round"/>
<path d="M77.8682 97.0264H39.0791V101.953H77.8682V97.0264Z" stroke="#232F3E" stroke-width="2" stroke-linejoin="round"/>
<path d="M102.545 50.356L108.946 58.0546L104.964 61.3684L98.557 53.6761L95.6401 60.4171L91.1797 40.7422L109.721 48.7243L102.545 50.356Z" stroke="#232F3E" stroke-width="2" stroke-linejoin="round"/>
<path d="M33.8939 75.3543L33.7427 35.0469" stroke="#232F3E" stroke-width="2" stroke-linejoin="round"/>
<path d="M23.707 31.0211C24.4968 31.0211 25.1371 30.3808 25.1371 29.591C25.1371 28.8012 24.4968 28.1609 23.707 28.1609C22.9171 28.1609 22.2769 28.8012 22.2769 29.591C22.2769 30.3808 22.9171 31.0211 23.707 31.0211Z" fill="#232F3E"/>
<path d="M27.9911 31.0086C28.781 31.0086 29.4212 30.3684 29.4212 29.5785C29.4212 28.7887 28.781 28.1484 27.9911 28.1484C27.2013 28.1484 26.561 28.7887 26.561 29.5785C26.561 30.3684 27.2013 31.0086 27.9911 31.0086Z" fill="#232F3E"/>
<path d="M32.2812 30.9896C33.071 30.9896 33.7113 30.3493 33.7113 29.5595C33.7113 28.7697 33.071 28.1294 32.2812 28.1294C31.4914 28.1294 30.8511 28.7697 30.8511 29.5595C30.8511 30.3493 31.4914 30.9896 32.2812 30.9896Z" fill="#232F3E"/>
<path d="M17.5391 35.0469H100.176" stroke="#232F3E" stroke-width="2" stroke-linejoin="round"/>
<path d="M56.4038 42.9596L86.0453 42.821" stroke="#232F3E" stroke-width="2" stroke-linejoin="round"/>
<path d="M52.2404 39.8824L46.0728 39.905L46.0954 46.0727L52.263 46.0501L52.2404 39.8824Z" fill="#B5D6F4" stroke="#232F3E" stroke-width="2" stroke-linejoin="round"/>
<path d="M52.2853 52.0917L46.1177 52.1143L46.1403 58.2819L52.3079 58.2593L52.2853 52.0917Z" fill="#B5D6F4" stroke="#232F3E" stroke-width="2" stroke-linejoin="round"/>
<path d="M56.4922 67.3786L89.0569 67.24" stroke="#232F3E" stroke-width="2" stroke-linejoin="round"/>
<path d="M52.3239 64.3009L46.1562 64.3235L46.1789 70.4911L52.3465 70.4685L52.3239 64.3009Z" fill="#B5D6F4" stroke="#232F3E" stroke-width="2" stroke-linejoin="round"/>
<path d="M56.4482 55.711L89.0129 55.5913" stroke="#232F3E" stroke-width="2" stroke-linejoin="round"/>
</svg>
